<?xml version="1.0" encoding="UTF-8"?>
<svg id="Layer_2" data-name="Layer 2" xmlns="http://www.w3.org/2000/svg" viewBox="0 0 39.674 71.21">
  <defs>
    <style>
      .cls-1 {
        stroke-width: .072px;
      }

      .cls-1, .cls-2, .cls-3, .cls-4, .cls-5 {
        stroke: #231f20;
        stroke-miterlimit: 10;
      }

      .cls-1, .cls-3, .cls-4, .cls-5 {
        fill: none;
      }

      .cls-2 {
        fill: #fff;
      }

      .cls-3 {
        stroke-width: .216px;
      }

      .cls-5 {
        stroke-width: .36px;
      }
    </style>
  </defs>
  <line class="cls-4" x1="20.349" y1="51.241" x2="6.998" y2="68.074"/>
  <line class="cls-4" x1="20.349" y1="51.241" x2="35.423" y2="67.904"/>
  <line class="cls-4" x1="20.955" y1="21.436" x2="20.445" y2="51.394"/>
  <circle class="cls-2" cx="20.785" cy="11.223" r="10.723"/>
  <line class="cls-4" x1="20.104" y1="34.032" x2="2.743" y2="19.904"/>
  <line class="cls-4" x1="21.126" y1="34.032" x2="38.487" y2="19.904"/>
  <path class="cls-1" d="M14.032,44.584c-.91.075-5.732.38-9.713-3.156-.515-.458-4.844-4.431-4.222-10.141.238-2.185,1.116-3.839,1.74-4.804"/>
  <path class="cls-3" d="M12.533,41.257c-.611.05-3.849.255-6.522-2.119-.346-.307-3.253-2.976-2.835-6.81.16-1.467.749-2.578,1.168-3.226"/>
  <path class="cls-5" d="M12.108,38.278c-.391.032-2.464.163-4.174-1.356-.221-.197-2.082-1.904-1.814-4.358.102-.939.48-1.65.748-2.065"/>
  <path class="cls-1" d="M25.642,45.448c.91.075,5.732.38,9.713-3.156.515-.458,4.844-4.431,4.222-10.141-.238-2.185-1.116-3.839-1.74-4.804"/>
  <path class="cls-3" d="M27.141,42.12c.611.05,3.849.255,6.522-2.119.346-.307,3.253-2.976,2.835-6.81-.16-1.467-.749-2.578-1.168-3.226"/>
  <path class="cls-5" d="M27.566,39.141c.391.032,2.464.163,4.174-1.356.221-.197,2.082-1.904,1.814-4.358-.102-.939-.48-1.65-.748-2.065"/>
</svg>